<svg xmlns="http://www.w3.org/2000/svg" xml:space="preserve" width="2048" height="2048" style="shape-rendering:geometricPrecision;text-rendering:geometricPrecision;image-rendering:optimizeQuality;fill-rule:evenodd;clip-rule:evenodd"><defs><style>.fil0{fill:none}</style></defs><g id="Layer_x0020_1"><path class="fil0" d="M0 0h2048v2048H0z"/><path class="fil0" d="M255.999 255.999h1536v1536h-1536z"/><path class="fil0" d="M255.999 256h1536v1536h-1536z"/><path d="M673.842 674.712c169.51-169.716 428.821-193.899 624.831-73.916-66.458 65.674-142.934 142.486-142.934 142.486-53.806 64.347 6.448 101.463 37.116 100.397H1689.367c18.8 0 34.219-15.418 34.219-34.48v-492.44c2.318-44.817-47.134-88.605-98.36-38.37 0 0-84.456 82.42-142.673 140.114-298.464-217.915-719.041-193.19-988.706 76.213-157.38 157.38-230.491 365.988-221.726 572.018h254.694c-9.027-140.636 39.433-284.355 147.026-392.022z" style="fill:#00897b"/><path d="M1521.18 981.213c9.027 140.896-39.434 284.56-147.026 392.228-169.772 169.454-428.821 193.712-624.831 73.915 66.458-65.673 142.952-142.41 142.952-142.41 53.525-64.421-6.729-101.463-37.135-100.416H358.628c-19.063 0-34.48 15.418-34.48 34.219v492.439c-2.057 45.022 47.394 88.605 98.36 38.369 0 0 84.455-82.158 142.934-140.112 298.483 218.176 719.041 193.45 988.444-76.214 157.381-157.101 230.753-365.97 221.988-572.017H1521.18z" style="fill:#4db6ac"/></g></svg>