<svg xmlns="http://www.w3.org/2000/svg" viewBox="0 0 512 512" style="enable-background:new 0 0 512 512" xml:space="preserve"><path style="fill:#2ba5f7" d="M480.54 299.751c-26.716-26.716-70.031-26.716-96.747 0-26.716 26.716-26.716 70.031 0 96.747l48.374 48.374 48.374-48.374c26.715-26.716 26.715-70.031-.001-96.747z"/><circle style="fill:#e6e6e6" cx="432.163" cy="348.619" r="24.921"/><path style="fill:#f95428" d="M128.204 87.129c-26.716-26.716-70.031-26.716-96.747 0-26.716 26.716-26.716 70.031 0 96.747l48.374 48.374 48.374-48.374c26.714-26.716 26.714-70.031-.001-96.747z"/><circle style="fill:#e6e6e6" cx="79.831" cy="136.003" r="24.921"/><path style="fill:#333" d="M79.83 243.708a11.455 11.455 0 0 1-8.102-3.356l-48.373-48.374c-31.14-31.141-31.14-81.81 0-112.952 31.141-31.141 81.812-31.141 112.953 0 31.14 31.141 31.14 81.81 0 112.952l-48.375 48.374a11.464 11.464 0 0 1-8.103 3.356zm0-165.131c-14.585 0-29.168 5.551-40.27 16.654-22.206 22.206-22.206 58.336 0 80.542l40.27 40.272 40.272-40.272c22.206-22.206 22.206-58.336 0-80.542-11.104-11.102-25.687-16.654-40.272-16.654z"/><path style="fill:#333" d="M79.83 172.381c-20.06 0-36.38-16.319-36.38-36.38 0-20.06 16.319-36.38 36.38-36.38 6.329 0 11.459 5.13 11.459 11.459s-5.13 11.459-11.459 11.459c-7.423 0-13.463 6.04-13.463 13.463 0 7.424 6.04 13.463 13.463 13.463 7.424 0 13.463-6.04 13.463-13.463 0-6.329 5.13-11.459 11.459-11.459s11.459 5.13 11.459 11.459c-.001 20.059-16.321 36.379-36.381 36.379zM432.167 456.33a11.418 11.418 0 0 1-8.102-3.356l-48.373-48.373c-31.141-31.141-31.141-81.81 0-112.952 15.085-15.085 35.143-23.393 56.476-23.393 21.334 0 41.391 8.308 56.476 23.393 31.14 31.141 31.14 81.81 0 112.952l-48.373 48.373a11.43 11.43 0 0 1-8.104 3.356zm-.001-165.158c-15.213 0-29.514 5.924-40.27 16.68-22.206 22.206-22.206 58.336 0 80.542l40.272 40.27 40.27-40.27c22.206-22.206 22.206-58.336 0-80.542-10.756-10.756-25.058-16.68-40.272-16.68z"/><path style="fill:#333" d="M432.167 385.003c-20.06 0-36.38-16.319-36.38-36.38 0-20.061 16.321-36.38 36.38-36.38 6.329 0 11.459 5.13 11.459 11.459s-5.13 11.459-11.459 11.459c-7.424 0-13.463 6.04-13.463 13.463 0 7.423 6.04 13.463 13.463 13.463s13.463-6.04 13.463-13.463c0-6.329 5.13-11.459 11.459-11.459s11.459 5.13 11.459 11.459c-.002 20.059-16.321 36.379-36.381 36.379z"/><path style="fill:#4d4d4d" d="M386.208 456.33H235.312c-35.628 0-64.614-28.986-64.614-64.614s28.986-64.614 64.614-64.614h41.373c22.992 0 41.697-18.705 41.697-41.697 0-22.992-18.705-41.697-41.697-41.697H127.242c-6.329 0-11.459-5.13-11.459-11.459s5.13-11.459 11.459-11.459h149.443c35.628 0 64.614 28.986 64.614 64.614s-28.986 64.614-64.614 64.614h-41.373c-22.992 0-41.697 18.705-41.697 41.697 0 22.992 18.705 41.697 41.697 41.697h150.896c6.329 0 11.459 5.13 11.459 11.459-.001 6.329-5.131 11.459-11.459 11.459z"/></svg>