<svg xmlns="http://www.w3.org/2000/svg" viewBox="0 0 48 48"><defs><style>.cls-3{fill:#dad7e5}</style></defs><g id="Analytic_Pie_Chart" data-name="Analytic Pie Chart"><path d="M47 6v24H1V6a4 4 0 0 1 3-3.87C4.67 1.94 2.21 2 43 2a4 4 0 0 1 4 4z" style="fill:#9fdbf3"/><path d="M47 6v22H29.87A25.87 25.87 0 0 1 4 2.13C4.82 1.9 43.12 2 43 2a4 4 0 0 1 4 4z" style="fill:#b2e5fb"/><path class="cls-3" d="M47 30c0 1.9.13 2.83-.52 4A4 4 0 0 1 43 36H5a4 4 0 0 1-4-4v-2z"/><path d="M47 30c0 1.9.13 2.83-.52 4H8a4 4 0 0 1-4-4z" style="fill:#edebf2"/><path style="fill:#c6c3d8" d="M18 36h12v10H18z"/><path class="cls-3" d="M30 38v8H20a8 8 0 0 1 8-8z"/><path class="cls-3" d="M33 46H15a1 1 0 0 1 0-2h18a1 1 0 0 1 0 2z"/><path d="M23 16a8 8 0 0 1-5.7 7.66c-.66-2.2-.19-.62-2.3-7.66V8a8 8 0 0 1 8 8z" style="fill:#9dcc6b"/><path d="M17.3 23.66a8 8 0 0 1-9-12.1L15 16c2.16 7.18 1.65 5.49 2.3 7.66z" style="fill:#db5669"/><path d="M15 8v8l-6.65-4.44A8 8 0 0 1 15 8z" style="fill:#fc6"/><path d="M21.57 20.56A7.9 7.9 0 0 1 17 22c-.29 0 0 .67-2-6V8a8 8 0 0 1 6.57 12.56z" style="fill:#b5e08c"/><path d="M16.8 22a8 8 0 0 1-7.58-9.86L15 16z" style="fill:#f26674"/><path d="M15 8v8l-5.78-3.86a7.66 7.66 0 0 1 1.22-2.71A7.94 7.94 0 0 1 15 8z" style="fill:#ffde76"/><path d="M15 7a9 9 0 1 0 9 9 9 9 0 0 0-9-9zm-1 2.08v5.05l-4.2-2.8A7 7 0 0 1 14 9.08zM8.69 13l5.45 3.64 1.8 6.3A7 7 0 0 1 8.69 13zm9.17 9.39C15.63 14.56 16 17.61 16 9.08a7 7 0 0 1 1.86 13.3zM41 11H27a1 1 0 0 0 0 2h14a1 1 0 0 0 0-2zM41 15H27a1 1 0 0 0 0 2h14a1 1 0 0 0 0-2zM37 19H27a1 1 0 0 0 0 2h10a1 1 0 0 0 0-2z"/><path d="M43 1H5a5 5 0 0 0-5 5v26a5 5 0 0 0 5 5h12v8h-2a1 1 0 0 0 0 2h18a1 1 0 0 0 0-2h-2v-8h12a5 5 0 0 0 5-5V6a5 5 0 0 0-5-5zM2 6a3 3 0 0 1 3-3h38a3 3 0 0 1 3 3v23H2zm27 39H19v-8h10zm17-13a3 3 0 0 1-3 3H5a3 3 0 0 1-3-3v-1h44z"/><path d="M8 34a1 1 0 0 0 0-2 1 1 0 0 0 0 2z"/></g></svg>