<svg xmlns="http://www.w3.org/2000/svg" width="128" height="128" fill="lightblue"><path d="M114 15.25H14A9.761 9.761 0 0 0 4.25 25v77A10.762 10.762 0 0 0 15 112.75h98A10.762 10.762 0 0 0 123.75 102V25a9.761 9.761 0 0 0-9.75-9.75zm6.25 9.75v11.683H52.888L61.37 18.75H114a6.257 6.257 0 0 1 6.25 6.25zM14 18.75h43.5l-8.484 17.933H7.75V25A6.257 6.257 0 0 1 14 18.75zm99 90.5H15A7.258 7.258 0 0 1 7.75 102V40.183h112.5V102a7.258 7.258 0 0 1-7.25 7.25z"/><path d="M21.57 33.467a5.75 5.75 0 1 0-5.75-5.75 5.756 5.756 0 0 0 5.75 5.75zm0-8a2.25 2.25 0 1 1-2.25 2.25 2.253 2.253 0 0 1 2.25-2.25zM37.626 33.467a5.75 5.75 0 1 0-5.75-5.75 5.756 5.756 0 0 0 5.75 5.75zm0-8a2.25 2.25 0 1 1-2.25 2.25 2.253 2.253 0 0 1 2.25-2.25zM67.522 29.467h44.745a1.75 1.75 0 0 0 0-3.5H67.522a1.75 1.75 0 0 0 0 3.5zM43.5 68.415H49v16.178a1.75 1.75 0 0 0 1.75 1.75h26.5a1.75 1.75 0 0 0 1.75-1.75V68.415h5.5a1.75 1.75 0 0 0 1.161-3.06l-20.5-18.173a1.749 1.749 0 0 0-2.322 0l-20.5 18.173a1.75 1.75 0 0 0 1.161 3.06zm17.206 14.428V72.089h6.588v10.754zM64 50.83l15.888 14.085h-2.636a1.75 1.75 0 0 0-1.75 1.75v16.178h-4.708v-12.5a1.749 1.749 0 0 0-1.75-1.75H58.956a1.749 1.749 0 0 0-1.75 1.75v12.5H52.5V66.665a1.75 1.75 0 0 0-1.75-1.75h-2.638zM97.5 89.821h-67a1.75 1.75 0 0 0-1.75 1.75v10.858a1.75 1.75 0 0 0 1.75 1.75h67a1.75 1.75 0 0 0 1.75-1.75V91.571a1.75 1.75 0 0 0-1.75-1.75zm-65.25 10.858v-7.358h7.358v7.358zm63.5 0H43.108v-7.358H95.75z"/></svg>