<svg xmlns="http://www.w3.org/2000/svg" viewBox="0 0 512 512" style="enable-background:new 0 0 512 512" xml:space="preserve"><path style="fill:#1dace1" d="M404.497 484.847h53.294c25.474 0 46.124-20.652 46.124-46.124V187.045c0-25.472-20.65-46.124-46.124-46.124H318.763c-2.35 3.255-6.164 5.379-10.485 5.379H204.8c-4.32 0-8.135-2.125-10.485-5.379H54.208c-25.474 0-46.124 20.652-46.124 46.124v251.677c0 25.472 20.65 46.124 46.124 46.124H376.47"/><path style="fill:#92c8f4" d="M453.726 172.179H58.273c-10.752 0-19.47 8.718-19.47 19.47V435.2c0 10.752 8.718 19.47 19.47 19.47H453.726c10.752 0 19.47-8.718 19.47-19.47V191.646c0-10.749-8.718-19.467-19.47-19.467z"/><circle style="fill:#cde3fd" cx="256" cy="313.419" r="98.627"/><path style="fill:#ef6131" d="M311.333 298.063H271.36V258.09c0-7.143-5.792-12.935-12.935-12.935h-4.851c-7.143 0-12.935 5.792-12.935 12.935v39.973h-39.973c-7.143 0-12.935 5.792-12.935 12.935v4.851c0 7.145 5.792 12.935 12.935 12.935h39.973v39.973c0 7.143 5.792 12.935 12.935 12.935h4.851c7.143 0 12.935-5.792 12.935-12.935v-39.973h39.973c7.143 0 12.935-5.789 12.935-12.935v-4.851c-.001-7.143-5.792-12.935-12.935-12.935z"/><path style="fill:#51616b" d="M291.318 113.963h16.421c7.143 0 12.935 5.792 12.935 12.935v6.467c0 7.143-5.792 12.935-12.935 12.935H204.261c-7.143 0-12.935-5.792-12.935-12.935v-6.467c0-7.143 5.792-12.935 12.935-12.935h59.03"/><path style="fill:#d6d6d6" d="M148.211 140.92V66.385a6.9 6.9 0 0 1 6.893-6.894h201.794c3.8 0 6.893 3.092 6.893 6.894v74.534h32.337V66.385c0-21.631-17.598-39.231-39.23-39.231H155.103c-21.631 0-39.229 17.6-39.229 39.231v74.534l32.337.001z"/><path style="fill:#09a4ce" d="M37.726 438.723V187.045c0-25.472 20.65-46.124 46.124-46.124H54.208c-25.474 0-46.124 20.652-46.124 46.124v251.677c0 25.472 20.65 46.124 46.124 46.124H83.85c-25.473.001-46.124-20.653-46.124-46.123z"/><path style="fill:#76b8e5" d="M68.446 435.196V191.647c0-10.752 8.718-19.47 19.47-19.47H58.274c-10.752 0-19.47 8.718-19.47 19.47v243.551c0 10.752 8.718 19.47 19.47 19.47h29.642c-10.752-.002-19.47-8.72-19.47-19.472z"/><path style="fill:#b4d5ef" d="M187.015 313.423c0-49.433 36.367-90.37 83.806-97.519A99.341 99.341 0 0 0 256 214.796c-54.471 0-98.627 44.156-98.627 98.627 0 54.469 44.156 98.627 98.627 98.627 5.038 0 9.987-.38 14.821-1.108-47.439-7.151-83.806-48.087-83.806-97.519z"/><path style="fill:#42555e" d="M220.968 133.365v-6.467c0-7.143 5.792-12.935 12.935-12.935h-29.642c-7.143 0-12.935 5.792-12.935 12.935v6.467c0 7.143 5.792 12.935 12.935 12.935h29.642c-7.143-.001-12.935-5.792-12.935-12.935z"/><path style="fill:#ccc" d="M184.745 27.153h-29.642c-21.631 0-39.229 17.6-39.229 39.231v74.534h29.642V66.385c0-21.631 17.597-39.232 39.229-39.232z"/><path style="fill:#231f20" d="M481.28 435.196V191.649c0-15.193-12.36-27.554-27.554-27.554H58.274c-15.193 0-27.554 12.361-27.554 27.554v243.547c0 15.193 12.361 27.554 27.554 27.554h395.453c15.193 0 27.553-12.361 27.553-27.554zm-434.392 0V191.649c0-6.278 5.107-11.386 11.386-11.386h395.453c6.278 0 11.386 5.107 11.386 11.386v243.547c0 6.278-5.107 11.386-11.386 11.386H58.274c-6.279-.001-11.386-5.109-11.386-11.386z"/><path style="fill:#231f20" d="M457.792 132.835h-53.581v-66.45c0-26.09-21.225-47.315-47.314-47.315H155.103c-26.088-.001-47.313 21.225-47.313 47.315v66.45H54.208C24.318 132.835 0 157.154 0 187.044v251.678c0 29.89 24.318 54.208 54.208 54.208H376.47c4.466 0 8.084-3.618 8.084-8.084s-3.618-8.084-8.084-8.084H54.208c-20.976 0-38.04-17.064-38.04-38.04V187.044c0-20.976 17.064-38.04 38.04-38.04h136.06c3.721 3.333 8.617 5.379 13.992 5.379h104.017c5.205 0 10.2-1.956 14.021-5.379H457.79c20.976 0 38.04 17.064 38.04 38.04v251.678c0 20.976-17.064 38.04-38.04 38.04h-53.294c-4.466 0-8.084 3.618-8.084 8.084s3.618 8.084 8.084 8.084h53.294c29.891 0 54.208-24.318 54.208-54.208V187.044c.002-29.89-24.315-54.209-54.206-54.209zm-252.992 5.38c-1.567 0-3-.739-3.93-2.026a8.094 8.094 0 0 0-1.194-1.31 4.764 4.764 0 0 1-.266-1.514v-6.467a4.856 4.856 0 0 1 4.851-4.851h59.03c4.466 0 8.084-3.618 8.084-8.084s-3.618-8.084-8.084-8.084h-59.029c-11.59 0-21.019 9.429-21.019 21.019v5.939h-26.947V67.574h199.411v65.261H328.76v-5.939c0-11.59-9.429-21.019-21.019-21.019H291.32a8.082 8.082 0 0 0-8.084 8.084 8.082 8.082 0 0 0 8.084 8.084h16.421a4.856 4.856 0 0 1 4.851 4.851v6.467a4.857 4.857 0 0 1-4.851 4.851H204.8v.001zm167.074-5.38v-66.45c0-8.259-6.719-14.978-14.977-14.978H155.103c-8.258 0-14.976 6.72-14.976 14.978v66.45h-16.168v-66.45c0-17.175 13.972-31.147 31.145-31.147h201.794c17.174 0 31.146 13.973 31.146 31.147v66.45h-16.17z"/><path style="fill:#231f20" d="M256 206.711c-58.841 0-106.712 47.87-106.712 106.712S197.159 420.134 256 420.134s106.712-47.87 106.712-106.712c0-58.839-47.871-106.711-106.712-106.711zm0 197.255c-49.925 0-90.543-40.618-90.543-90.543S206.075 222.88 256 222.88s90.543 40.618 90.543 90.543c0 49.926-40.618 90.543-90.543 90.543z"/><path style="fill:#231f20" d="M279.444 289.978v-31.887c0-11.59-9.429-21.019-21.019-21.019h-4.851c-11.59 0-21.019 9.429-21.019 21.019v31.888h-31.888c-11.59 0-21.019 9.429-21.019 21.019v4.851c0 11.59 9.429 21.019 21.019 21.019h31.888v31.888c0 11.59 9.429 21.019 21.019 21.019h4.851c11.59 0 21.019-9.429 21.019-21.019v-31.888h31.888c11.59 0 21.019-9.429 21.019-21.019v-4.851c0-11.59-9.429-21.019-21.019-21.019h-31.888v-.001zm36.739 21.019v4.851a4.856 4.856 0 0 1-4.851 4.851H271.36a8.082 8.082 0 0 0-8.084 8.084v39.973a4.856 4.856 0 0 1-4.851 4.851h-4.851a4.856 4.856 0 0 1-4.851-4.851v-39.973a8.082 8.082 0 0 0-8.084-8.084h-39.973a4.856 4.856 0 0 1-4.851-4.851v-4.851a4.857 4.857 0 0 1 4.851-4.851h39.973a8.082 8.082 0 0 0 8.084-8.084V258.09a4.856 4.856 0 0 1 4.851-4.851h4.851a4.856 4.856 0 0 1 4.851 4.851v39.973a8.082 8.082 0 0 0 8.084 8.084h39.973a4.856 4.856 0 0 1 4.85 4.85z"/></svg>