<svg xmlns="http://www.w3.org/2000/svg" xml:space="preserve" width="655.359" height="655.359" style="shape-rendering:geometricPrecision;text-rendering:geometricPrecision;image-rendering:optimizeQuality;fill-rule:evenodd;clip-rule:evenodd" viewBox="0 0 6.827 6.827"><defs><style>.fil2{fill:none}</style></defs><g id="Layer_x0020_1"><path d="M3.413 1.327c-.126 0-.254.011-.381.035l-.121-.263a.328.328 0 0 0-.435-.16l-.334.152a.33.33 0 0 0-.16.436l.12.262c-.158.13-.295.279-.408.444l-.272-.1a.335.335 0 0 0-.421.193l-.127.344a.326.326 0 0 0-.02.11v.009a.329.329 0 0 0 .214.302l.272.1c-.022.2-.015.402.023.603l-.263.121a.329.329 0 0 0-.161.435l.154.333c.076.165.27.237.434.161l.264-.121c.129.16.278.296.442.409l-.1.272a.323.323 0 0 0 .01.25c.036.08.102.14.184.171l.345.127a.328.328 0 0 0 .42-.194l.1-.272c.074.008.148.012.221.012v-.789c-.504 0-.966-.296-1.177-.754a1.298 1.298 0 0 1 1.176-1.84h.001v-.788z" style="fill:#00c853;fill-rule:nonzero"/><path d="m5.76 3.734-.273-.1c.021-.2.014-.402-.023-.603l.263-.121a.328.328 0 0 0 .16-.435l-.153-.333a.327.327 0 0 0-.435-.161l-.263.121a2.07 2.07 0 0 0-.443-.409l.1-.272A.329.329 0 0 0 4.5 1L4.155.873a.336.336 0 0 0-.42.193l-.101.273a2.098 2.098 0 0 0-.217-.012h-.004v.789h.003c.503.001.964.297 1.175.754a1.298 1.298 0 0 1-1.177 1.839v.789a2.1 2.1 0 0 0 .381-.035l.121.263c.076.164.271.236.435.16l.333-.153a.328.328 0 0 0 .16-.435l-.12-.263c.159-.128.296-.278.409-.443l.272.101a.327.327 0 0 0 .42-.194l.128-.344a.328.328 0 0 0-.194-.421z" style="fill:#00e676;fill-rule:nonzero"/><g id="_490166928"><path id="_490167024" class="fil2" d="M0 0h6.827v6.827H0z"/><path id="_490167120" class="fil2" d="M.853.853h5.12v5.12H.853z"/></g></g></svg>