<svg version="1.1" id="Layer_1" xmlns="http://www.w3.org/2000/svg" x="0" y="0" viewBox="0 0 64 64" style="enable-background:new 0 0 64 64" xml:space="preserve"><style>.st0,.st1,.st11,.st13,.st15,.st3,.st6{fill:#039be5;stroke:#0277bd;stroke-linecap:round;stroke-linejoin:round;stroke-miterlimit:10}.st1,.st11,.st13,.st15,.st3,.st6{fill:#81d4fa}.st11,.st13,.st15,.st3,.st6{fill:#ffa726}.st11,.st13,.st15,.st6{fill:none;stroke:#ffcc80}.st11,.st13,.st15{fill:#eee;stroke:#0277bd}.st13,.st15{fill:none;stroke:#e1f5fe}.st15{stroke:#29b6f6}</style><g id="Forklift"><path class="st1" d="M18 37.5h-6V25c0-.6.4-1 1-1h4c.6 0 1 .4 1 1v12.5z"/><path class="st3" d="M15 43h21v11H15z"/><path class="st11" d="m33.9 43-4.7-11.3-1.8.8L31.7 43z"/><path class="st3" d="M15 54H5c-1.7 0-3-1.3-3-3V40.5c0-1.7 1.3-3 3-3h10V54z"/><path class="st6" d="M4 40.5c0-.6.4-1 1-1h8"/><path class="st11" d="M38 54h-1c-.6 0-1-.4-1-1V32.7L30.4 8.3c-.1-.5-.5-.8-1-.8H7c-.6 0-1-.4-1-1v-1c0-.6.4-1 1-1h23.2c1.4 0 2.6 1 2.9 2.3L39 32.2V53c0 .6-.4 1-1 1zM61 53H42v3h19c.6 0 1-.4 1-1v-1c0-.6-.4-1-1-1z"/><path class="st11" d="M45 56V31.5c0-.6-.4-1-1-1h-1c-.6 0-1 .4-1 1V56h3zM39 48h3v3h-3z"/><circle class="st0" cx="29.5" cy="53" r="6.5"/><circle class="st11" cx="29.5" cy="53" r="3"/><circle class="st0" cx="10.5" cy="53" r="6.5"/><circle class="st11" cx="10.5" cy="53" r="3"/><path class="st1" d="M59 38H46c-.6 0-1 .4-1 1v13c0 .6.4 1 1 1h13c.6 0 1-.4 1-1V39c0-.6-.4-1-1-1zM59 23H46c-.6 0-1 .4-1 1v13c0 .6.4 1 1 1h13c.6 0 1-.4 1-1V24c0-.6-.4-1-1-1zM26 37.5H15V43h11c.6 0 1-.4 1-1v-3.5c0-.6-.4-1-1-1z"/><path class="st3" d="M12 29.5H9c-2.8 0-5 2.2-5 5v3h8v-8z"/><path class="st6" d="M6 34.5c0-1.7 1.3-3 3-3h1m0 0"/><path class="st0" d="M24.6 33.6h0c-.2-.5 0-1.1.5-1.3l5.5-2.3c.5-.2 1.1 0 1.3.5v0c.2.5 0 1.1-.5 1.3l-5.5 2.3c-.5.3-1.1 0-1.3-.5z"/><path class="st11" d="M9 7.5h3v22H9z"/><path class="st13" d="M47 25h11"/><path class="st15" d="M47 36h11"/><path class="st1" d="M59 8H46c-.6 0-1 .4-1 1v13c0 .6.4 1 1 1h13c.6 0 1-.4 1-1V9c0-.6-.4-1-1-1z"/><path class="st13" d="M47 10h11"/><path class="st15" d="M47 21h11"/><path class="st13" d="M47 40h11"/><path class="st15" d="M47 51h11"/><path class="st13" d="M17 39.5h8M14 26h2"/></g></svg>