<svg id="_140_user_group_outline" data-name="#140_user_group_outline" xmlns="http://www.w3.org/2000/svg" viewBox="0 0 400 300" data-imageid="user-group-outline" imageName="User Group" class="illustrations_image" style="width: 186px;"><path d="M285.39,210.33V190a16.46,16.46,0,0,0-16.45-16.45H253.22A16.46,16.46,0,0,0,236.77,190v20.35Z" fill="#68e1fd" class="target-color"/><path d="M285.39,211.33H236.77a1,1,0,0,1-1-1V190a17.47,17.47,0,0,1,17.45-17.45h15.72A17.47,17.47,0,0,1,286.39,190v20.35A1,1,0,0,1,285.39,211.33Zm-47.62-2h46.62V190a15.47,15.47,0,0,0-15.45-15.45H253.22A15.47,15.47,0,0,0,237.77,190Z" fill="#093f68"/><polygon points="257.16 175.15 261.63 196.53 265.43 175.15 257.16 175.15" fill="#093f68"/><path d="M261.63,197.53a1,1,0,0,1-1-.79l-4.48-21.39a1,1,0,0,1,1-1.2h8.27a1,1,0,0,1,.77.35,1,1,0,0,1,.21.82l-3.79,21.39a1,1,0,0,1-1,.82Zm-3.24-21.38,3.16,15.11,2.69-15.11Z" fill="#093f68"/><path d="M259,106.53a18.72,18.72,0,0,1,3.08-.24c4.75,0,9.6-.12,13.94,2a26.35,26.35,0,0,1,14.67,23.49l-1,19.47h-57c-.33-1.14.18-2.49.23-3.63a15.63,15.63,0,0,0-.56-3.77,52.12,52.12,0,0,1-1.14-9.65,37.33,37.33,0,0,1,3.12-14.84c1.16-2.82,2.52-5.74,5-7.49s6.43-1.82,8.2.66A19.8,19.8,0,0,1,259,106.53Z" fill="#725858"/><path d="M289.7,152.25h-57a1,1,0,0,1-1-.72,6.31,6.31,0,0,1,0-2.84,8.26,8.26,0,0,0,.15-1.12,10.15,10.15,0,0,0-.36-2.68c-.06-.28-.13-.56-.18-.84a53.1,53.1,0,0,1-1.16-9.83,38.16,38.16,0,0,1,3.2-15.24c1.16-2.83,2.62-6,5.35-7.93,2.51-1.77,6.45-2.06,8.8,0a20.83,20.83,0,0,1,11.23-5.53,20.07,20.07,0,0,1,3.24-.25h.84c4.55,0,9.25,0,13.54,2.1a27.31,27.31,0,0,1,15.23,24.39s0,0-1,19.52A1,1,0,0,1,289.7,152.25Zm-56.07-2h55.12c.2-3.88.95-18.36.95-18.52a25.3,25.3,0,0,0-14.11-22.55c-3.88-1.89-8.34-1.89-12.66-1.89h-.85a19.3,19.3,0,0,0-2.91.22h0a18.75,18.75,0,0,0-10.84,5.7,1,1,0,0,1-1.54-.1c-1.43-2-4.78-1.87-6.82-.43-2.28,1.62-3.55,4.38-4.65,7.06a36.22,36.22,0,0,0-3,14.45,50.94,50.94,0,0,0,1.12,9.47c.05.26.11.53.17.8a11.84,11.84,0,0,1,.41,3.2,10.48,10.48,0,0,1-.18,1.37A12.07,12.07,0,0,0,233.63,150.25ZM259,106.53h0Z" fill="#093f68"/><path d="M257.16,170.39h8.27a0,0,0,0,1,0,0v4.76a3.51,3.51,0,0,1-3.51,3.51h-1.25a3.51,3.51,0,0,1-3.51-3.51v-4.76A0,0,0,0,1,257.16,170.39Z" fill="#ffc9b0"/><path d="M261.92,179.66h-1.25a4.52,4.52,0,0,1-4.51-4.51v-4.76a1,1,0,0,1,1-1h8.27a1,1,0,0,1,1,1v4.76A4.52,4.52,0,0,1,261.92,179.66Zm-3.76-8.27v3.76a2.52,2.52,0,0,0,2.51,2.51h1.25a2.52,2.52,0,0,0,2.51-2.51v-3.76Z" fill="#093f68"/><ellipse cx="239.02" cy="148.9" rx="7.57" ry="6.92" fill="#ffc9b0"/><path d="M239,156.83c-4.72,0-8.56-3.56-8.56-7.93S234.3,141,239,141s8.57,3.55,8.57,7.92S243.75,156.83,239,156.83ZM239,143c-3.62,0-6.56,2.66-6.56,5.92s2.94,5.93,6.56,5.93,6.57-2.66,6.57-5.93S242.65,143,239,143Z" fill="#093f68"/><ellipse cx="283.14" cy="148.9" rx="7.57" ry="6.92" fill="#ffc9b0"/><path d="M283.14,156.83c-4.73,0-8.57-3.56-8.57-7.93s3.84-7.92,8.57-7.92,8.56,3.55,8.56,7.92S287.86,156.83,283.14,156.83Zm0-13.85c-3.63,0-6.57,2.66-6.57,5.92s2.94,5.93,6.57,5.93,6.56-2.66,6.56-5.93S286.76,143,283.14,143Z" fill="#093f68"/><path d="M261.29,171.47h0a24.23,24.23,0,0,1-24.23-24.23V134.19s6.1-3.48,7.91-9c0,0,9.32,10.59,18.29,9.88A208.34,208.34,0,0,0,285.53,132v15.25A24.23,24.23,0,0,1,261.29,171.47Z" fill="#ffc9b0"/><path d="M261.29,172.47a25.26,25.26,0,0,1-25.23-25.23V134.19a1,1,0,0,1,.5-.87c.06,0,5.79-3.37,7.46-8.41a1,1,0,0,1,1.7-.35c.09.1,9.13,10.21,17.46,9.54A208.66,208.66,0,0,0,285.33,131a1,1,0,0,1,.83.21,1,1,0,0,1,.37.77v15.25A25.26,25.26,0,0,1,261.29,172.47Zm-23.23-37.72v12.49a23.24,23.24,0,0,0,46.47,0v-14a211.46,211.46,0,0,1-21.19,2.89c-7.66.61-15.25-6.24-18-9A20.75,20.75,0,0,1,238.06,134.75Z" fill="#093f68"/><path d="M261.18,152.25a14.73,14.73,0,0,1-2.24-.18,1,1,0,0,1,.35-2,11,11,0,0,0,3,.08,17.43,17.43,0,0,0-1.86-4.92,1,1,0,1,1,1.77-.92c1,1.92,2.58,5.36,1.91,6.86a1.51,1.51,0,0,1-1,.85A8.13,8.13,0,0,1,261.18,152.25Z" fill="#093f68"/><path d="M247.37,210.76a1,1,0,0,1-1-1v-18.4a1,1,0,0,1,2,0v18.4A1,1,0,0,1,247.37,210.76Z" fill="#093f68"/><path d="M274.79,210.76a1,1,0,0,1-1-1v-18.4a1,1,0,0,1,2,0v18.4A1,1,0,0,1,274.79,210.76Z" fill="#093f68"/><path d="M129.78,112.28s-5.51-1.93-10.74,4.84c-4.89,6.33-4.63,15.41-4.87,23A78.36,78.36,0,0,1,110,162.37c-2.2,6.89,1,14.38,6.46,18.53,4.42,3.36,9.72,4.67,14.91,5.08,4.41.36,8.69-.83,13-.34a23.11,23.11,0,0,0,23.21-11.48,14.91,14.91,0,0,0,2.22-6.32,22.88,22.88,0,0,0-.84-6.57,113,113,0,0,1-2.78-23.38A38.66,38.66,0,0,0,162,119.68C155.33,107.39,137.5,101.75,129.78,112.28Z" fill="#725858"/><path d="M133.13,187.05c-.61,0-1.22,0-1.84-.07-6.38-.51-11.43-2.24-15.44-5.28-6.19-4.71-9-12.78-6.8-19.63a76.66,76.66,0,0,0,4.12-22c0-.71,0-1.43.06-2.17.18-7.2.39-15.37,5-21.37s9.34-5.68,11.14-5.34c3.08-3.83,7.72-5.74,13.16-5.37,8.11.55,16.28,5.94,20.32,13.41a39.76,39.76,0,0,1,4.33,18.69A111.85,111.85,0,0,0,170,161.06l.11.46a22,22,0,0,1,.75,6.39,15.83,15.83,0,0,1-2.34,6.76,24.15,24.15,0,0,1-24.2,12,32,32,0,0,0-6.54.14C136.23,186.91,134.69,187.05,133.13,187.05Zm-5.27-74c-1.82,0-4.94.71-8,4.71-4.22,5.47-4.42,13.29-4.6,20.19l-.06,2.19A77.84,77.84,0,0,1,111,162.67c-1.93,6.07.58,13.23,6.11,17.43,3.69,2.81,8.4,4.4,14.39,4.89a36.65,36.65,0,0,0,6.11-.2,34.12,34.12,0,0,1,6.94-.14,22.19,22.19,0,0,0,22.24-11,13.87,13.87,0,0,0,2.08-5.9,20,20,0,0,0-.72-5.81l-.1-.46a113.86,113.86,0,0,1-2.8-23.59,37.77,37.77,0,0,0-4.08-17.74c-3.74-6.89-11.26-11.87-18.71-12.37-5-.35-9.17,1.47-11.82,5.08a1,1,0,0,1-1.13.36A5.21,5.21,0,0,0,127.86,113Z" fill="#093f68"/><path d="M164,210.33V189.72a16.66,16.66,0,0,0-16.66-16.66H131.42a16.66,16.66,0,0,0-16.66,16.66v20.61Z" fill="#68e1fd" class="target-color"/><path d="M164,211.33H114.76a1,1,0,0,1-1-1V189.72a17.68,17.68,0,0,1,17.66-17.66h15.92A17.68,17.68,0,0,1,165,189.72v20.61A1,1,0,0,1,164,211.33Zm-48.24-2H163V189.72a15.68,15.68,0,0,0-15.66-15.66H131.42a15.68,15.68,0,0,0-15.66,15.66Z" fill="#093f68"/><polygon points="139.38 197.09 136.4 174.47 144.02 174.47 139.38 197.09" fill="#093f68"/><path d="M139.38,198.09h0a1,1,0,0,1-1-.87l-3-22.62a1,1,0,0,1,.24-.79,1,1,0,0,1,.75-.34H144a1,1,0,0,1,.77.36,1,1,0,0,1,.21.84l-4.64,22.62A1,1,0,0,1,139.38,198.09Zm-1.84-22.62,2.05,15.59,3.2-15.59Z" fill="#093f68"/><path d="M125.49,210.75a1,1,0,0,1-1-1V191.12a1,1,0,0,1,2,0v18.63A1,1,0,0,1,125.49,210.75Z" fill="#093f68"/><path d="M153.27,210.75a1,1,0,0,1-1-1V191.12a1,1,0,0,1,2,0v18.63A1,1,0,0,1,153.27,210.75Z" fill="#093f68"/><path d="M136.4,170.66H144a0,0,0,0,1,0,0V175a3.23,3.23,0,0,1-3.23,3.23h-1.15A3.23,3.23,0,0,1,136.4,175v-4.38A0,0,0,0,1,136.4,170.66Z" fill="#ffc9b0"/><path d="M140.78,179.28h-1.15A4.24,4.24,0,0,1,135.4,175v-4.38a1,1,0,0,1,1-1H144a1,1,0,0,1,1,1V175A4.24,4.24,0,0,1,140.78,179.28Zm-3.38-7.62V175a2.24,2.24,0,0,0,2.23,2.24h1.15A2.25,2.25,0,0,0,143,175v-3.38Z" fill="#093f68"/><ellipse cx="118.43" cy="150.87" rx="7.4" ry="6.38" fill="#ffc9b0"/><path d="M118.43,158.25c-4.63,0-8.4-3.31-8.4-7.38s3.77-7.38,8.4-7.38,8.41,3.31,8.41,7.38S123.07,158.25,118.43,158.25Zm0-12.76c-3.53,0-6.4,2.41-6.4,5.38s2.87,5.38,6.4,5.38,6.41-2.42,6.41-5.38S122,145.49,118.43,145.49Z" fill="#093f68"/><ellipse cx="161.59" cy="150.87" rx="7.4" ry="6.38" fill="#ffc9b0"/><path d="M161.59,158.25c-4.63,0-8.4-3.31-8.4-7.38s3.77-7.38,8.4-7.38,8.4,3.31,8.4,7.38S166.22,158.25,161.59,158.25Zm0-12.76c-3.53,0-6.4,2.41-6.4,5.38s2.87,5.38,6.4,5.38,6.4-2.42,6.4-5.38S165.12,145.49,161.59,145.49Z" fill="#093f68"/><path d="M153.79,132l-7.23-9.29-2.62,9.26-11.39,0-2.68-8.29-3.16,8.28-8.83,0v17.49a22.33,22.33,0,0,0,22.33,22.33h0a22.32,22.32,0,0,0,22.32-22.33V132Z" fill="#ffc9b0"/><path d="M140.21,172.66a23.36,23.36,0,0,1-23.33-23.33V131.84a1,1,0,0,1,1-1h0l8.15,0,2.91-7.63a1,1,0,0,1,1.88.05l2.46,7.6,9.9,0c1-3.55,2.42-8.53,2.42-8.53a1,1,0,0,1,1.75-.34l6.93,8.9,8.26,0a1,1,0,0,1,1,1v17.36A23.35,23.35,0,0,1,140.21,172.66Zm-21.33-39.82v16.49a21.33,21.33,0,1,0,42.65,0V133l-7.75,0a1,1,0,0,1-.78-.39l-6-7.73c-.57,2-1.45,5.11-2.09,7.36a1,1,0,0,1-1,.73h0l-11.39,0a1,1,0,0,1-1-.69l-1.81-5.59-2.14,5.62a1,1,0,0,1-.94.65h0Z" fill="#093f68"/><path d="M140.1,154a13.18,13.18,0,0,1-2.07-.17,1,1,0,1,1,.34-2A9.8,9.8,0,0,0,141,152a17,17,0,0,0-1.7-4.42,1,1,0,0,1,.43-1.35,1,1,0,0,1,1.34.42c.93,1.79,2.4,5,1.76,6.39a1.43,1.43,0,0,1-1,.83A7,7,0,0,1,140.1,154Z" fill="#093f68"/><path d="M238.74,227.58v-22a26.11,26.11,0,0,0-26.11-26.12H187.68a26.12,26.12,0,0,0-26.12,26.12v22Z" fill="#68e1fd" class="target-color"/><path d="M238.74,228.58H161.56a1,1,0,0,1-1-1v-22a27.16,27.16,0,0,1,27.12-27.12h24.95a27.15,27.15,0,0,1,27.11,27.12v22A1,1,0,0,1,238.74,228.58Zm-76.18-2h75.18v-21a25.14,25.14,0,0,0-25.11-25.12H187.68a25.15,25.15,0,0,0-25.12,25.12Z" fill="#093f68"/><rect x="193.93" y="182.04" width="13.13" height="45.55" fill="#093f68"/><path d="M207.06,228.58H193.93a1,1,0,0,1-1-1V182a1,1,0,0,1,1-1h13.13a1,1,0,0,1,1,1v45.54A1,1,0,0,1,207.06,228.58Zm-12.13-2h11.13V183H194.93Z" fill="#093f68"/><path d="M197.12,73.64a11.71,11.71,0,0,1,11,.28,7.19,7.19,0,0,0,2.61,1.23,8.92,8.92,0,0,0,2.95-.5A7.6,7.6,0,0,1,220.85,77a6.65,6.65,0,0,0,1.62,1.6,5.52,5.52,0,0,0,3,.21,12.7,12.7,0,0,1,12.36,7.65A13.14,13.14,0,0,0,239,89.19c1.84,2.6,5.06,4.13,6.53,7.15,1.54,3.18.65,7.38-.48,10.56a6.91,6.91,0,0,1,.8,11c-.82.73-2,1.53-1.75,2.61a3.22,3.22,0,0,0,.41.93c2.57,4.48.66,7.94-1.29,12-1.42,3,1.53,7.32-.39,9.93-1,1.39-3.22.9-5,.9-4.64,0-9.28,0-13.92,0-6.93,0-13.86-.12-20.78-.12-9,0-18-.29-26.95-.37-7.21-.07-16.68,2.69-19.51-5.94a15.3,15.3,0,0,1-.62-6.05c.1-1.21,1.17-3.56.87-4.67a3.2,3.2,0,0,0-.75-1.12,6.64,6.64,0,0,1-.75-6.27c.72-2.1,2.17-3.72,3.33-5.55-3.78-3.09-5.05-12.41-2.24-16.43a6.6,6.6,0,0,0,1.2-2,5.57,5.57,0,0,0,0-1.82c-.35-3.39,2.43-12,7.13-7.83a6.64,6.64,0,0,1,2.6-5.28,7.91,7.91,0,0,1,10.18.63c2-3.06,4.31-6.13,7.56-7.82s7.71-1.6,10.15,1.13A11.86,11.86,0,0,1,197.12,73.64Z" fill="#e28362"/><path d="M240.13,145.33c-.4,0-.8,0-1.17,0l-1.06,0c-4.65,0-9.29,0-13.93,0q-4.16,0-8.29-.06c-4.17,0-8.33-.06-12.49-.06-5.23,0-10.54-.1-15.68-.2-3.76-.07-7.52-.14-11.28-.17-1.39,0-2.83.08-4.37.18-6.36.4-13.56.86-16.08-6.81a16.35,16.35,0,0,1-.67-6.45,11.28,11.28,0,0,1,.45-2,7.15,7.15,0,0,0,.46-2.35,2.15,2.15,0,0,0-.38-.53l-.18-.22a7.62,7.62,0,0,1-.93-7.23,17,17,0,0,1,2.41-4.24l.58-.83c-3.63-3.86-4.69-13-1.77-17.15.11-.17.24-.33.36-.5a3.44,3.44,0,0,0,.69-1.14,3.74,3.74,0,0,0,0-1.15l0-.33c-.26-2.52,1.09-8.09,4.06-9.62a3.53,3.53,0,0,1,3.26,0A7.72,7.72,0,0,1,166.87,80,8.87,8.87,0,0,1,177.44,80c1.95-2.86,4.22-5.62,7.31-7.23s7.75-1.88,10.72.72a11,11,0,0,1,1.2-.7h0a12.78,12.78,0,0,1,11.92.31l.49.3a4.73,4.73,0,0,0,1.74.8,4.79,4.79,0,0,0,1.76-.27c.28-.08.56-.16.84-.22a8.58,8.58,0,0,1,8.18,2.67l.36.42a3.62,3.62,0,0,0,1,.95,3.85,3.85,0,0,0,2,.14l.44,0a13.63,13.63,0,0,1,13.35,8.28c.1.24.2.49.29.74a7.71,7.71,0,0,0,.83,1.78,17.06,17.06,0,0,0,2.73,2.79,14.74,14.74,0,0,1,3.88,4.5c1.3,2.69,1.24,6.27-.2,10.63a7.92,7.92,0,0,1,.29,12.12l-.31.26c-.53.46-1.2,1-1.13,1.43a2.09,2.09,0,0,0,.25.5l.05.1c2.7,4.73.91,8.43-1,12.35l-.28.57c-.53,1.1-.26,2.6,0,4.2.37,2.05.75,4.17-.52,5.89A4.06,4.06,0,0,1,240.13,145.33Zm-2.21-2.08c.36,0,.75,0,1.14,0,1.5.09,2.52.09,3-.53.76-1,.47-2.64.16-4.35s-.67-3.73.14-5.42l.28-.57c1.8-3.73,3.22-6.67,1-10.49l-.06-.09a3.49,3.49,0,0,1-.47-1.15c-.28-1.53.92-2.55,1.8-3.3l.27-.24a5.91,5.91,0,0,0-.69-9.41,1,1,0,0,1-.4-1.17c1-2.86,1.94-6.89.53-9.79a13.11,13.11,0,0,0-3.4-3.88,18.8,18.8,0,0,1-3-3.13,9,9,0,0,1-1.07-2.24l-.27-.69a11.77,11.77,0,0,0-11.35-7l-.42,0a5.49,5.49,0,0,1-3.09-.35A5.34,5.34,0,0,1,220.42,78c-.11-.13-.21-.26-.32-.38a6.66,6.66,0,0,0-6.25-2l-.73.19a6.1,6.1,0,0,1-2.56.33A6.37,6.37,0,0,1,208,75.06l-.46-.28a10.71,10.71,0,0,0-10-.24h0a9.27,9.27,0,0,0-1.59,1,1,1,0,0,1-1.36-.12c-2.21-2.47-6.25-2.31-9-.91s-4.93,4.06-7.18,7.48a1,1,0,0,1-1.53.18,6.88,6.88,0,0,0-8.89-.56,5.62,5.62,0,0,0-2.2,4.47,1,1,0,0,1-.59.91,1,1,0,0,1-1.07-.15c-1.4-1.23-2.22-.81-2.49-.67-1.91,1-3.21,5.46-3,7.65l0,.29a4.12,4.12,0,0,1-1.06,3.75l-.31.42c-2.51,3.59-1.31,12.33,2.06,15.09a1,1,0,0,1,.21,1.31c-.35.54-.72,1.07-1.08,1.59a15,15,0,0,0-2.15,3.74,5.71,5.71,0,0,0,.57,5.32l.16.18a3.47,3.47,0,0,1,.79,1.31,7.21,7.21,0,0,1-.46,3.43,9.39,9.39,0,0,0-.39,1.58,14.27,14.27,0,0,0,.58,5.66c2,6.2,7.87,5.82,14,5.43,1.51-.1,3.08-.2,4.52-.18,3.76,0,7.53.1,11.3.17,5.13.1,10.43.2,15.64.2,4.17,0,8.33,0,12.5.06q4.14,0,8.28.06c4.64,0,9.28,0,13.92,0Zm-40.8-69.61h0Z" fill="#093f68"/><path d="M193.93,174.48h13.13a0,0,0,0,1,0,0V182a5.57,5.57,0,0,1-5.57,5.57h-2a5.57,5.57,0,0,1-5.57-5.57v-7.56A0,0,0,0,1,193.93,174.48Z" fill="#ffc9b0"/><path d="M201.48,188.61h-2a6.58,6.58,0,0,1-6.57-6.57v-7.56a1,1,0,0,1,1-1h13.13a1,1,0,0,1,1,1V182A6.58,6.58,0,0,1,201.48,188.61Zm-6.55-13.13V182a4.58,4.58,0,0,0,4.57,4.57h2a4.58,4.58,0,0,0,4.58-4.57v-6.56Z" fill="#093f68"/><ellipse cx="165.14" cy="140.38" rx="12.01" ry="10.99" fill="#ffc9b0"/><path d="M165.14,152.37c-7.17,0-13-5.38-13-12s5.84-12,13-12,13,5.38,13,12S172.32,152.37,165.14,152.37Zm0-22c-6.07,0-11,4.49-11,10s4.94,10,11,10,11-4.48,11-10S171.21,130.38,165.14,130.38Z" fill="#093f68"/><ellipse cx="235.17" cy="140.38" rx="12.01" ry="10.99" fill="#ffc9b0"/><path d="M235.17,152.37c-7.18,0-13-5.38-13-12s5.84-12,13-12,13,5.38,13,12S242.34,152.37,235.17,152.37Zm0-22c-6.08,0-11,4.49-11,10s4.94,10,11,10,11-4.48,11-10S241.24,130.38,235.17,130.38Z" fill="#093f68"/><path d="M200.49,176.2a38.74,38.74,0,0,1-30.34-14.81c-8.84-11.32-8.44-24.84-7.84-38.51a11,11,0,0,1,.71-4.07c1.43-3.23,6.87-4.16,9.49-6.45a18.39,18.39,0,0,0,6.12-10.9,12.44,12.44,0,0,0,12-5.45A17.82,17.82,0,0,0,208,95.77,18.26,18.26,0,0,0,228.16,105a6.18,6.18,0,0,0,7,5.13c-2.85.55,3.65,12.59,3.86,13.76.78,4.25-.07,9.43-.07,13.8A38.47,38.47,0,0,1,200.49,176.2Z" fill="#ffc9b0"/><path d="M200.49,177.2A39.81,39.81,0,0,1,169.36,162c-9.24-11.84-8.61-26.36-8.05-39.17a12,12,0,0,1,.79-4.44c1-2.3,3.57-3.5,6-4.66a16.36,16.36,0,0,0,3.73-2.13,17.51,17.51,0,0,0,5.79-10.3,1,1,0,0,1,1.13-.84,11.48,11.48,0,0,0,11-5,1,1,0,0,1,1.33-.34,16.72,16.72,0,0,0,16.32-.22,1,1,0,0,1,.8-.1,1.06,1.06,0,0,1,.61.51,17.23,17.23,0,0,0,19,8.75,1,1,0,0,1,1.24.85,5.2,5.2,0,0,0,5.84,4.27h0a1,1,0,0,1,.48,1.94c-.47,1.37,2.45,7.78,3.43,9.91a17.08,17.08,0,0,1,1.13,2.71,40.3,40.3,0,0,1,.13,9.4c-.1,1.61-.19,3.14-.19,4.58A39.52,39.52,0,0,1,200.49,177.2Zm-21.05-74.65a19.36,19.36,0,0,1-6.27,10.57,18.57,18.57,0,0,1-4.2,2.43c-2.12,1-4.32,2-5,3.66a10.4,10.4,0,0,0-.62,3.72c-.57,13.07-1.16,26.59,7.63,37.85a37.48,37.48,0,0,0,67-23.05c0-1.51.1-3.13.2-4.7a39.42,39.42,0,0,0-.11-8.92c-.06-.22-.55-1.29-1-2.24-2.37-5.18-3.72-8.63-3.62-10.65a7.25,7.25,0,0,1-3.44-1.37,7.1,7.1,0,0,1-2.63-3.62,19.4,19.4,0,0,1-19.82-9.1,18.84,18.84,0,0,1-16.6.17A13.66,13.66,0,0,1,179.44,102.55Zm55.93,8.6Z" fill="#093f68"/><path d="M200.31,145.11a21.35,21.35,0,0,1-3.45-.29,1,1,0,0,1,.35-2,16.54,16.54,0,0,0,5.39,0c.31-.92-1-4.84-3-8.56a1,1,0,0,1,1.77-.93c1,1.85,4,8.08,3,10.38a1.81,1.81,0,0,1-1.21,1A12.49,12.49,0,0,1,200.31,145.11Z" fill="#093f68"/><path d="M178.38,227.68a1,1,0,0,1-1-1v-18.9a1,1,0,1,1,2,0v18.9A1,1,0,0,1,178.38,227.68Z" fill="#093f68"/><path d="M221.93,227.68a1,1,0,0,1-1-1v-18.9a1,1,0,0,1,2,0v18.9A1,1,0,0,1,221.93,227.68Z" fill="#093f68"/></svg>